<?xml version="1.0" standalone="no"?>
<!DOCTYPE svg PUBLIC "-//W3C//DTD SVG 20010904//EN"
 "http://www.w3.org/TR/2001/REC-SVG-20010904/DTD/svg10.dtd">
<svg version="1.0" xmlns="http://www.w3.org/2000/svg"
 width="84.000000pt" height="84.000000pt" viewBox="0 0 84.000000 84.000000"
 preserveAspectRatio="xMidYMid meet">
<metadata>
Created by potrace 1.11, written by Peter Selinger 2001-2013
</metadata>
<g transform="translate(0.000000,84.000000) scale(0.100000,-0.100000)"
fill="#000000" stroke="none">
<path d="M230 791 c-109 -36 -163 -114 -154 -226 6 -90 52 -125 233 -181 116
-35 164 -74 160 -126 -2 -18 -11 -44 -20 -59 -17 -24 -17 -26 2 -37 10 -7 33
-12 49 -12 26 0 33 6 46 36 27 64 18 160 -18 205 -29 35 -118 73 -218 93 -55
12 -118 44 -131 67 -16 30 -5 97 21 124 41 43 137 49 193 12 14 -9 33 -38 43
-64 21 -57 25 -60 65 -57 41 3 49 18 37 63 -22 79 -53 118 -118 147 -41 18
-154 27 -190 15z"/>
<path d="M684 781 c-2 -2 -4 -128 -4 -280 0 -302 -2 -309 -59 -348 -63 -43
-190 -24 -228 33 -8 13 -21 43 -28 66 -11 39 -15 43 -46 44 -65 1 -66 -2 -32
-108 17 -56 81 -118 138 -135 21 -7 72 -11 114 -9 84 2 130 19 179 67 53 52
58 85 57 393 l0 279 -43 1 c-24 0 -46 -1 -48 -3z"/>
<path d="M54 298 c-9 -13 18 -104 42 -145 37 -64 98 -95 198 -101 l80 -5 -46
47 c-26 25 -51 46 -57 46 -6 0 -26 7 -44 16 -39 18 -68 62 -77 113 -5 33 -7
35 -49 35 -23 1 -45 -2 -47 -6z"/>
</g>
</svg>
